HIERARCHY
ROOT Hips
{
  OFFSET 267.745 86.9975 -272.335
  CHANNELS 6 Xposition Yposition Zposition Zrotation Xrotation Yrotation
  JOINT LeftUpLeg
  {
    OFFSET 8.64259 1.95398 -2.38835
    CHANNELS 3 Zrotation Xrotation Yrotation
    JOINT LeftLeg
    {
      OFFSET 43.7702 0 0
      CHANNELS 3 Zrotation Xrotation Yrotation
      JOINT LeftFoot
      {
        OFFSET 40.6238 0 0
        CHANNELS 3 Zrotation Xrotation Yrotation
        JOINT LeftToeBase
        {
          OFFSET 12.7242 0 0
          CHANNELS 3 Zrotation Xrotation Yrotation
          End Site
          {
            OFFSET 0 0 0
          }
        }
      }
    }
  }
  JOINT RightUpLeg
  {
    OFFSET -8.2249 1.95398 -2.59336
    CHANNELS 3 Zrotation Xrotation Yrotation
    JOINT RightLeg
    {
      OFFSET 43.5653 0 0
      CHANNELS 3 Zrotation Xrotation Yrotation
      JOINT RightFoot
      {
        OFFSET 40.6238 0 0
        CHANNELS 3 Zrotation Xrotation Yrotation
        JOINT RightToeBase
        {
          OFFSET 12.7242 0 0
          CHANNELS 3 Zrotation Xrotation Yrotation
          End Site
          {
            OFFSET 0 0 0
          }
        }
      }
    }
  }
  JOINT Spine
  {
    OFFSET 0.165834 0.87714 6.61349
    CHANNELS 3 Zrotation Xrotation Yrotation
    JOINT Spine1
    {
      OFFSET 7.38963 1.71661e-005 0
      CHANNELS 3 Zrotation Xrotation Yrotation
      JOINT Spine2
      {
        OFFSET 11.9445 1.14441e-005 0
        CHANNELS 3 Zrotation Xrotation Yrotation
        JOINT Spine3
        {
          OFFSET 14.7254 4.19617e-005 0
          CHANNELS 3 Zrotation Xrotation Yrotation
          JOINT Spine4
          {
            OFFSET 10.9679 0 0
            CHANNELS 3 Zrotation Xrotation Yrotation
            JOINT RightShoulder
            {
              OFFSET 2.46616 -1.6653 3.69651
              CHANNELS 3 Zrotation Xrotation Yrotation
              JOINT RightArm
              {
                OFFSET 13.0012 0 0
                CHANNELS 3 Zrotation Xrotation Yrotation
                JOINT RightForeArm
                {
                  OFFSET 28.7848 1.52588e-005 0
                  CHANNELS 3 Zrotation Xrotation Yrotation
                  JOINT RightHand
                  {
                    OFFSET 26.5688 1.52588e-005 0
                    CHANNELS 3 Zrotation Xrotation Yrotation
                    End Site
                    {
                      OFFSET 0 0 0
                    }
                  }
                }
              }
            }
            JOINT LeftShoulder
            {
              OFFSET 2.38034 -1.29275 -3.7523
              CHANNELS 3 Zrotation Xrotation Yrotation
              JOINT LeftArm
              {
                OFFSET 16.3182 6.10352e-005 0
                CHANNELS 3 Zrotation Xrotation Yrotation
                JOINT LeftForeArm
                {
                  OFFSET 27.0901 0 0
                  CHANNELS 3 Zrotation Xrotation Yrotation
                  JOINT LeftHand
                  {
                    OFFSET 24.5451 1.52588e-005 0
                    CHANNELS 3 Zrotation Xrotation Yrotation
                    End Site
                    {
                      OFFSET 0 0 0
                    }
                  }
                }
              }
            }
            JOINT Neck
            {
              OFFSET 5.0226 -0.0266342 0
              CHANNELS 3 Zrotation Xrotation Yrotation
              JOINT Head
              {
                OFFSET 6.69364 2.86102e-005 0
                CHANNELS 3 Zrotation Xrotation Yrotation
                End Site
                {
                  OFFSET 0 0 0
                }
              }
            }
          }
        }
      }
    }
  }
}
MOTION
Frames:	11
Frame Time:	0.0416667
-304.578 58.3914 333.116 -105.4 -56.9585 -113.832 150.483 58.3685 104.016 -116.144 26.5673 -8.45835 83.8548 28.3679 11.9884 36.8144 4.40323 -83.9232 -172.752 50.6993 59.4702 -113.613 -2.7254 2.14926 98.2025 3.70468 19.5387 34.5752 -1.281 -4.21259 -2.64674 7.88126 -88.5796 11.1763 -4.60797 3.27782 -0.491081 -4.45933 3.47752 -23.08 -5.37952 1.73901 -3.06732 -5.37951 1.739 69.8909 -33.6707 -141.05 43.047 34.8025 56.9752 158.286 -12.7673 -51.113 2.64254 -2.20698 -72.5791 -109.065 -51.1035 51.3552 -13.1616 -34.216 61.8028 50.2641 18.4426 -70.3393 25.593 -5.32718 -25.1842 -68.107 37.0945 16.5819 123.073 53.4109 -1.23491 
-305.436 57.9826 334.12 -105.649 -56.9014 -114.402 149.002 59.6366 105.602 -113.871 27.7024 -8.76167 81.2454 26.8136 11.6043 45.4391 -4.23274 -85.1372 -173.189 49.628 59.4813 -114.484 -3.90059 2.15398 99.6415 2.33717 17.7271 36.1517 -1.73505 -4.04263 -2.63154 7.86186 -88.553 11.2152 -4.56469 3.32918 -0.45255 -4.41381 3.5269 -23.0395 -5.35366 1.80114 -3.02681 -5.35364 1.80114 69.4368 -34.4123 -141.229 42.0214 34.7675 57.803 157.666 -13.6158 -50.863 2.17611 -1.87259 -71.8614 -109.315 -51.3051 51.1084 -12.9718 -33.5628 59.2648 51.4217 18.6452 -71.0446 26.2345 -5.60624 -25.7666 -68.5116 36.5323 16.5043 122.953 53.266 -0.851783 
-307.682 56.8094 336.769 -106.309 -56.7274 -115.943 145.618 62.2864 108.952 -107.393 29.9873 -9.4366 74.6657 22.3002 10.4223 89.5989 -43.3025 -70.7592 -174.384 46.5869 59.4651 -116.601 -7.8377 2.21544 103.04 -2.18353 12.2158 40.9182 -3.09144 -4.16832 -2.59164 7.81409 -88.4846 11.3105 -4.4516 3.46052 -0.357929 -4.29511 3.6531 -22.9396 -5.28531 1.96075 -2.92697 -5.28529 1.96075 68.2649 -36.3191 -141.681 39.3459 34.6361 59.932 156.075 -15.8464 -50.2948 1.04187 -1.08849 -70.088 -109.961 -51.8417 50.4827 -12.5419 -31.8907 52.5589 53.4874 19.3476 -72.0305 27.3462 -6.30723 -27.5014 -69.5276 34.9937 16.3659 122.647 52.7397 0.118826 
-310.812 54.95 340.533 -107.234 -56.4328 -118.166 142.75 64.344 111.336 -97.3504 32.0424 -9.7135 66.2416 15.3699 8.19514 150.275 -17.3799 1.03094 -176.087 41.6255 59.1632 -119.056 -15.0751 2.39935 106.437 -10.0371 3.55318 47.9316 -5.24469 -5.79104 -2.53656 7.75451 -88.3979 11.429 -4.29931 3.62566 -0.240454 -4.13568 3.81131 -22.8152 -5.18968 2.16449 -2.80252 -5.18966 2.16449 66.6962 -38.8534 -142.271 35.6746 34.3667 62.7891 153.983 -18.9107 -49.6875 -0.315627 -0.214144 -67.8538 -110.843 -52.6204 49.6629 -12.0511 -29.7972 43.3888 54.289 20.8635 -71.7521 27.8887 -7.11771 -29.9565 -70.857 32.6948 16.3457 122.22 51.7149 1.42035 
-314.34 52.6987 344.895 -108.272 -56.0232 -120.775 142.709 64.4721 110.261 -84.5821 33.3526 -8.82736 57.3541 7.13915 4.69027 148.557 7.67231 19.5315 -178.062 34.8996 58.2535 -120.916 -24.3454 2.64548 108.247 -19.2763 -5.95282 54.4804 -7.70136 -8.85057 -2.48275 7.70128 -88.3211 11.5343 -4.15406 3.7706 -0.136003 -3.98422 3.94967 -22.7042 -5.09468 2.3468 -2.69152 -5.09468 2.34679 65.1022 -41.4014 -142.856 31.6869 33.9839 65.8131 151.815 -22.2669 -49.228 -1.57916 0.532273 -65.6004 -111.781 -53.5659 48.8652 -11.778 -27.9419 33.7479 53.1696 23.1818 -69.8707 27.777 -7.67258 -32.0146 -72.2094 29.8179 16.7017 121.738 50.1344 2.82437 
-317.781 50.5753 349.242 -109.291 -55.5163 -123.509 145.586 61.9809 105.811 -69.639 34.2018 -6.57036 48.1994 -1.20187 -0.203732 142.774 17.624 28.518 179.782 27.3909 56.7539 -121.575 -32.855 2.78988 108.545 -27.1504 -13.8051 59.0895 -9.83781 -11.7766 -2.45898 7.67591 -88.282 11.5845 -4.08736 3.84492 -0.0861967 -3.9143 4.02095 -22.6512 -5.0534 2.43793 -2.63857 -5.05339 2.43792 63.9165 -43.2595 -143.296 28.0841 33.6088 68.4844 149.807 -25.5033 -49.0183 -2.62006 1.09345 -63.5794 -112.542 -54.6234 48.372 -12.211 -26.7385 25.1101 50.8594 25.8311 -66.845 27.5321 -7.77656 -32.6122 -73.258 26.4895 17.8015 121.299 47.9579 4.10867 
-320.586 49.1538 352.822 -110.188 -54.9406 -126.157 149.475 56.5282 100.326 -52.3157 35.0904 -3.59479 38.2173 -8.6874 -6.54828 137.24 23.159 35.1466 177.733 20.9959 54.8131 -121.106 -38.6303 2.67014 107.928 -32.0243 -18.9521 62.2442 -11.3715 -13.3461 -2.5113 7.70513 -88.3002 11.5281 -4.20131 3.81691 -0.142229 -4.02939 3.998 -22.7111 -5.15364 2.37672 -2.69847 -5.15363 2.37672 63.6131 -43.626 -143.478 25.6657 33.4375 70.2741 147.985 -28.3758 -49.1577 -3.43092 1.49402 -61.9187 -112.808 -55.7689 48.5769 -13.791 -26.2354 18.0874 47.903 28.4387 -62.8454 27.6542 -7.28677 -30.779 -73.5602 22.8067 20.1488 121.03 45.0912 5.01795 
-322.128 48.9917 354.778 -110.894 -54.3287 -128.556 152.895 47.5459 95.6367 -30.6378 36.1693 -1.11744 26.0574 -14.8252 -14.6078 130.421 27.1735 41.9672 176.492 17.8361 52.6097 -120.264 -41.0105 2.17724 106.525 -33.1979 -21.4101 64.6462 -12.252 -13.1503 -2.70149 7.81921 -88.3725 11.3066 -4.61801 3.70036 -0.361959 -4.45079 3.90001 -22.9457 -5.51599 2.13938 -2.93306 -5.51599 2.13938 64.5792 -41.6734 -143.421 25.4315 33.6887 70.525 146.204 -30.7599 -49.8092 -4.0545 1.78381 -60.6885 -112.165 -57.0376 50.0105 -16.6854 -26.1991 12.9118 43.0721 30.7121 -56.62 28.3047 -5.66266 -24.5702 -72.4767 18.9949 24.3664 121.035 41.326 5.21603 
-321.752 50.6325 354.263 -111.36 -53.7067 -130.592 155.494 33.3954 92.13 -0.303652 37.1249 -0.0321593 9.24253 -19.2324 -25.3867 120.182 29.6005 50.2892 176.98 19.4994 50.3676 -119.637 -39.0541 1.26671 104.546 -29.9041 -20.5238 66.5982 -12.2827 -10.5381 -3.08788 8.04337 -88.4607 10.8719 -5.43717 3.57124 -0.79327 -5.27486 3.80728 -23.4072 -6.25824 1.76779 -3.39456 -6.25825 1.76778 66.9874 -36.73 -143.343 28.5457 34.5314 68.3353 144.281 -32.4932 -51.1749 -4.53265 2.0048 -59.9664 -110.135 -58.527 53.3038 -21.0294 -26.1322 10.5337 30.891 30.3373 -43.271 27.1247 -1.78927 -10.8166 -69.1426 15.74 31.0296 121.28 36.2985 4.28823 
-318.827 54.6773 350.507 -111.551 -53.0895 -132.18 157.425 32.5249 88.9774 0.195977 37.1618 0.0529071 7.88647 -20.7656 -25.4224 104.156 28.2318 60.1184 179.96 26.6707 48.1787 -118.229 -28.8384 -0.127528 102.621 -19.5702 -12.5188 67.4187 -10.3619 -2.40173 -3.69261 8.38927 -88.5044 10.2016 -6.67539 3.53617 -1.45782 -6.51338 3.82721 -24.1226 -7.42807 1.35753 -4.10997 -7.42807 1.35752 70.9558 -28.4472 -143.367 36.1287 35.9069 62.4709 142.224 -33.1404 -53.3637 -4.87652 2.18156 -59.9242 -105.771 -59.4991 59.3584 -29.0725 -25.6439 14.5399 14.5526 23.6175 -20.2863 9.36862 0.147161 -3.56262 -62.627 14.5384 40.276 121.461 29.4028 1.76695 
-312.951 61.3745 343.197 -111.42 -52.4783 -133.238 162.267 37.03 84.5254 -13.3809 36.0304 -1.82415 14.8768 -22.1116 -18.2098 79.4279 17.0089 64.954 -175.131 37.0331 46.3214 -111.974 -15.782 -1.63606 92.6327 -6.14826 -2.81224 65.4328 -6.92724 8.8419 -4.45646 8.84758 -88.4491 9.31445 -8.19155 3.6721 -2.3368 -8.02209 4.03064 -25.0748 -8.91379 1.02313 -5.06217 -8.91378 1.02312 76.6831 -17.0714 -143.098 48.7137 37.1373 51.62 140.521 -31.7993 -56.2311 -5.04005 2.31839 -61.0027 -98.2628 -56.1234 68.2275 -42.8059 -29.5435 23.5748 10.261 15.5292 -8.20975 0.608077 -0.285465 -8.45762 -52.791 16.86 50.4632 120.252 20.7495 -1.96511 
